# xmcd
#
# Track frame offsets: 
#        150
#        9684
#        27314
#        40786
#        54248
#        69036
#        71758
#        85849
#        102726
#        117906
#        128751
#        144505
#        149672
#        161750
#        180353
#        191027
#
# Disc length: 2672 seconds
#
# Revision: 0
# Processed by: cddbd v1.5.2PL0 Copyright (c) Steve Scherf et al.
# Submitted via: ExactAudioCopyFreeDBPlugin 1.0
#
DISCID=e10a6e10
DTITLE=Truckstop Honeymoon - Steamboat In A Cornfield
DYEAR=2011
DGENRE=Country
TTITLE0=Play Along
TTITLE1=On The Prairie Now
TTITLE2=She Wants To Be French
TTITLE3=Going Back To Louisiana
TTITLE4=Riverboat Banjo
TTITLE5=Kaw River Rag part 1
TTITLE6=Cowtown Blues
TTITLE7=The Key
TTITLE8=Grateful Dead Show
TTITLE9=Your Mother Is A Sociopath
TTITLE10=The Dance
TTITLE11=Kaw River Rag part 2
TTITLE12=Leidseplein
TTITLE13=Corn Maze
TTITLE14=Steamboat In A Cornfield
TTITLE15=Joues Le Jeu
EXTD=
EXTT0=
EXTT1=
EXTT2=
EXTT3=
EXTT4=
EXTT5=
EXTT6=
EXTT7=
EXTT8=
EXTT9=
EXTT10=
EXTT11=
EXTT12=
EXTT13=
EXTT14=
EXTT15=
PLAYORDER=
